<?xml version="1.0" encoding="UTF-8"?>
<svg width="30px" height="30px" viewBox="0 0 30 30" version="1.1" xmlns="http://www.w3.org/2000/svg" xmlns:xlink="http://www.w3.org/1999/xlink">
    <!-- Generator: Sketch 56.3 (81716) - https://sketch.com -->
    <title>Shape</title>
    <desc>Created with Sketch.</desc>
    <g id="Page-1" stroke="none" stroke-width="1" fill="none" fill-rule="evenodd" opacity="0.203013393">
        <g id="Desktop-HD" transform="translate(-1096.000000, -975.000000)" fill="#000000" fill-rule="nonzero">
            <g id="noun_send_976415" transform="translate(1096.000000, 975.000000)">
                <path d="M20.9651883,11.3483874 C21.1846571,11.0657439 21.1567829,10.6608318 20.9007067,10.4117014 C20.6446305,10.162571 20.243652,10.1502627 19.9731204,10.3832284 L7.57227229,21.0578869 L1.02367058,18.4953897 C0.441929726,18.270135 0.0433074673,17.7224881 0.00330353149,17.0935592 C-0.0367004043,16.4646303 0.289253091,15.8698024 0.837657861,15.570958 L28.0241326,0.162194645 C28.4594893,-0.0750857578 28.9886092,-0.0505335087 29.4006733,0.226068952 C29.8127373,0.502671413 30.0407869,0.986377503 29.9939596,1.48446247 L27.6091811,26.6365058 C27.5607577,27.1595691 27.2711723,27.6288231 26.8279367,27.9024608 C26.384701,28.1760986 25.8398183,28.2220152 25.3579502,28.0263348 L17.3880205,24.9040455 L12.3847553,29.6478019 C12.0073279,30.0045782 11.4562068,30.0997516 10.9831853,29.8898398 C10.5101638,29.679928 10.2060703,29.2052377 10.2098373,28.6826429 L10.2098373,24.9571292 L20.9651883,11.3483874 Z" id="Shape"></path>
            </g>
        </g>
    </g>
</svg>